# xmcd CD database file
#
# Track frame offsets:
#	150
#	23675
#	43475
#	62275
#
# Disc length: 1143 seconds
#
# Revision: 4
# Processed by: cddbd v1.5.1PL0 Copyright (c) Steve Scherf et al.
# Submitted via: CDex 1.51
#
DISCID=2b047504
DTITLE=GLAY - Winter, again
DYEAR=1999
DGENRE=J-Pop
TTITLE0=Winter, again
TTITLE1=Young oh! oh!
TTITLE2=HELLO MY LIFE
TTITLE3=Winter, again (instrumental)
EXTD=YEAR: 1999/02/03
EXTT0=
EXTT1=
EXTT2=
EXTT3=
PLAYORDER=
